<svg width="654" height="366" viewBox="0 0 654 366" fill="none" xmlns="http://www.w3.org/2000/svg">
<path d="M44.4227 173.344C54.6029 173.344 64.0118 176.743 71.5698 182.614C78.9736 143.372 113.37 113.709 154.708 113.709C155.325 113.709 155.788 113.709 156.405 113.709C166.585 49.2841 222.422 0 289.518 0C356.615 0 411.064 48.0481 422.324 111.391C437.902 93.4698 460.731 82.1916 486.335 82.1916C533.072 82.1916 571.016 120.198 571.016 167.01C571.016 167.628 571.016 168.246 571.016 168.864C575.952 167.628 581.196 167.01 586.441 167.01C623.768 167.01 654 197.291 654 234.679C654 272.067 623.768 302.348 586.441 302.348C572.25 302.348 558.985 297.867 548.188 290.452C539.087 329.848 503.919 359.357 461.656 359.357C434.2 359.357 409.675 346.843 393.325 327.222C377.284 350.55 350.445 366 320.059 366C283.349 366 251.883 343.753 238.309 311.927C227.974 318.57 215.635 322.278 202.524 322.278C178.308 322.278 157.022 309.3 145.299 289.988C137.587 309.146 118.769 322.741 96.866 322.741C68.0222 322.741 44.5769 299.258 44.5769 270.367C44.5769 267.741 44.7311 265.114 45.1939 262.488C45.0396 262.488 44.8854 262.488 44.5769 262.488C20.0519 262.488 2.49755e-06 242.558 2.49755e-06 217.839C2.49755e-06 193.119 19.8976 173.19 44.5769 173.19L44.4227 173.344Z" fill="url(#paint0_linear_2004_4)"/>
<defs>
<linearGradient id="paint0_linear_2004_4" x1="327" y1="0" x2="327" y2="366" gradientUnits="userSpaceOnUse">
<stop stop-color="white" stop-opacity="0.62"/>
<stop offset="1" stop-color="white" stop-opacity="0"/>
</linearGradient>
</defs>
</svg>
