<svg width="630" height="246" viewBox="0 0 630 246" fill="none" xmlns="http://www.w3.org/2000/svg">
<mask id="path-1-inside-1_2_2" fill="white">
<path fill-rule="evenodd" clip-rule="evenodd" d="M336 0C418.562 0 487.458 22.5834 503.483 52.6185C503.746 53.1109 504.348 53.3005 504.849 53.0546C507.998 51.5094 511.42 50.219 515.063 49.2473C536.221 43.6039 556.802 50.8507 561.032 65.4334C561.114 65.7149 561.189 65.9972 561.257 66.28C561.353 66.6793 561.674 66.9912 562.078 67.0642C599.075 73.7528 626.913 95.7129 629.762 124.105C631.896 145.377 619.543 165.668 598.499 180.114C598.299 180.251 598.154 180.455 598.091 180.689C593.552 197.457 575.823 213.122 551.711 219.554C533.923 224.298 516.406 223.019 503.254 217.16C502.894 216.999 502.475 217.061 502.175 217.316C496.936 221.767 490.519 225.17 483.229 227.044C470.235 230.382 457.109 228.18 446.773 221.98C446.436 221.778 446.015 221.784 445.688 222C428.155 233.566 404.782 240.624 379.116 240.624C353.505 240.624 330.177 233.596 312.657 222.074C312.288 221.832 311.808 221.855 311.465 222.133C293.395 236.738 266.501 246 236.469 246C195.754 246 160.808 228.977 145.796 204.694C145.465 204.159 144.733 204.046 144.249 204.448C137.317 210.211 128.089 213.726 117.959 213.726C104.83 213.726 93.2161 207.822 86.1515 198.772C85.8635 198.403 85.3625 198.272 84.9327 198.457C77.4007 201.704 69.0473 203.51 60.2539 203.51C26.9766 203.51 0 177.642 0 145.731C0 130.037 6.52492 115.805 17.1153 105.392C17.3476 105.164 17.4566 104.838 17.4101 104.515C17.1358 102.611 16.9941 100.667 16.9941 98.6906C16.9941 75.3982 36.685 56.5159 60.9751 56.5159C67.6628 56.5159 74.0019 57.9473 79.6773 60.508C80.1904 60.7395 80.7965 60.5178 81.0392 60.0099C90.1551 40.9346 115.41 27.2202 145.137 27.2202C159.266 27.2202 172.383 30.3178 183.239 35.6165C183.579 35.7826 183.976 35.7504 184.281 35.5251C212.805 14.4135 270.041 0 336 0Z"/>
</mask>
<path fill-rule="evenodd" clip-rule="evenodd" d="M336 0C418.562 0 487.458 22.5834 503.483 52.6185C503.746 53.1109 504.348 53.3005 504.849 53.0546C507.998 51.5094 511.42 50.219 515.063 49.2473C536.221 43.6039 556.802 50.8507 561.032 65.4334C561.114 65.7149 561.189 65.9972 561.257 66.28C561.353 66.6793 561.674 66.9912 562.078 67.0642C599.075 73.7528 626.913 95.7129 629.762 124.105C631.896 145.377 619.543 165.668 598.499 180.114C598.299 180.251 598.154 180.455 598.091 180.689C593.552 197.457 575.823 213.122 551.711 219.554C533.923 224.298 516.406 223.019 503.254 217.16C502.894 216.999 502.475 217.061 502.175 217.316C496.936 221.767 490.519 225.17 483.229 227.044C470.235 230.382 457.109 228.18 446.773 221.98C446.436 221.778 446.015 221.784 445.688 222C428.155 233.566 404.782 240.624 379.116 240.624C353.505 240.624 330.177 233.596 312.657 222.074C312.288 221.832 311.808 221.855 311.465 222.133C293.395 236.738 266.501 246 236.469 246C195.754 246 160.808 228.977 145.796 204.694C145.465 204.159 144.733 204.046 144.249 204.448C137.317 210.211 128.089 213.726 117.959 213.726C104.83 213.726 93.2161 207.822 86.1515 198.772C85.8635 198.403 85.3625 198.272 84.9327 198.457C77.4007 201.704 69.0473 203.51 60.2539 203.51C26.9766 203.51 0 177.642 0 145.731C0 130.037 6.52492 115.805 17.1153 105.392C17.3476 105.164 17.4566 104.838 17.4101 104.515C17.1358 102.611 16.9941 100.667 16.9941 98.6906C16.9941 75.3982 36.685 56.5159 60.9751 56.5159C67.6628 56.5159 74.0019 57.9473 79.6773 60.508C80.1904 60.7395 80.7965 60.5178 81.0392 60.0099C90.1551 40.9346 115.41 27.2202 145.137 27.2202C159.266 27.2202 172.383 30.3178 183.239 35.6165C183.579 35.7826 183.976 35.7504 184.281 35.5251C212.805 14.4135 270.041 0 336 0Z" fill="#0F458A"/>
<path d="M515.063 49.2473L514.033 45.3824L515.063 49.2473ZM561.032 65.4334L564.874 64.3192V64.3191L561.032 65.4334ZM629.762 124.105L633.742 123.706V123.706L629.762 124.105ZM551.711 219.554L552.742 223.418L551.711 219.554ZM483.229 227.044L484.224 230.918L483.229 227.044ZM183.239 35.6165L184.993 32.0218L183.239 35.6165ZM184.281 35.5251L186.66 38.7403L184.281 35.5251ZM86.1515 198.772L89.3045 196.311L86.1515 198.772ZM84.9327 198.457L86.5161 202.131L84.9327 198.457ZM145.796 204.694L142.394 206.798L145.796 204.694ZM144.249 204.448L141.692 201.372L144.249 204.448ZM312.657 222.074L314.854 218.732L312.657 222.074ZM311.465 222.133L308.95 219.022L311.465 222.133ZM17.1153 105.392L14.3109 102.54L17.1153 105.392ZM17.4101 104.515L21.3693 103.945L17.4101 104.515ZM503.254 217.16L501.627 220.813L503.254 217.16ZM502.175 217.316L499.585 214.268L502.175 217.316ZM598.499 180.114L600.762 183.412L598.499 180.114ZM598.091 180.689L601.952 181.735L598.091 180.689ZM561.257 66.28L565.145 65.3403L561.257 66.28ZM562.078 67.0642L561.367 71.0004L562.078 67.0642ZM446.773 221.98L444.715 225.41L446.773 221.98ZM445.688 222L443.485 218.661L445.688 222ZM79.6773 60.508L81.3224 56.8619L79.6773 60.508ZM81.0392 60.0099L84.6482 61.7346L81.0392 60.0099ZM503.483 52.6185L499.954 54.5014L503.483 52.6185ZM504.849 53.0546L506.612 56.6455L504.849 53.0546ZM507.012 50.7355C502.564 42.3977 494.639 34.8979 484.305 28.3474C473.937 21.7749 460.908 16.0073 445.906 11.2343C415.899 1.68784 377.615 -4 336 -4V4C376.947 4 414.393 9.60385 443.48 18.8578C458.025 23.4851 470.385 28.9949 480.022 35.1042C489.694 41.2354 496.39 47.8217 499.954 54.5014L507.012 50.7355ZM514.033 45.3824C510.141 46.4204 506.473 47.8019 503.087 49.4637L506.612 56.6455C509.522 55.2169 512.7 54.0176 516.094 53.1122L514.033 45.3824ZM564.874 64.3191C562.295 55.4282 554.858 49.1988 545.724 45.9826C536.564 42.7571 525.3 42.377 514.033 45.3824L516.094 53.1122C525.984 50.4742 535.59 50.8958 543.067 53.5285C550.571 56.1706 555.539 60.8559 557.19 66.5477L564.874 64.3191ZM565.145 65.3403C565.062 64.9989 564.972 64.6585 564.874 64.3192L557.19 66.5476C557.255 66.7714 557.315 66.9954 557.369 67.2197L565.145 65.3403ZM633.742 123.706C630.634 92.7296 600.589 69.9616 562.79 63.128L561.367 71.0004C597.562 77.544 623.193 98.6962 625.782 124.504L633.742 123.706ZM600.762 183.412C622.548 168.457 636.07 146.915 633.742 123.706L625.782 124.504C627.722 143.838 616.538 162.879 596.235 176.816L600.762 183.412ZM552.742 223.418C577.733 216.753 596.922 200.315 601.952 181.735L594.23 179.644C590.181 194.599 573.913 209.492 550.68 215.689L552.742 223.418ZM501.627 220.813C515.732 227.098 534.203 228.363 552.742 223.418L550.68 215.689C533.643 220.233 517.08 218.94 504.882 213.506L501.627 220.813ZM499.585 214.268C494.809 218.325 488.937 221.447 482.233 223.169L484.224 230.918C492.101 228.894 499.063 225.208 504.764 220.364L499.585 214.268ZM482.233 223.169C470.282 226.24 458.255 224.203 448.831 218.55L444.715 225.41C455.963 232.158 470.188 234.524 484.224 230.918L482.233 223.169ZM379.116 244.624C405.488 244.624 429.643 237.376 447.89 225.339L443.485 218.661C426.667 229.755 404.075 236.624 379.116 236.624V244.624ZM310.459 225.417C328.692 237.407 352.8 244.624 379.116 244.624V236.624C354.21 236.624 331.661 229.785 314.854 218.732L310.459 225.417ZM236.469 250C267.267 250 295.089 240.512 313.979 225.244L308.95 219.022C291.7 232.965 265.736 242 236.469 242V250ZM142.394 206.798C158.356 232.617 194.849 250 236.469 250V242C196.66 242 163.26 225.337 149.198 202.591L142.394 206.798ZM117.959 217.726C129.017 217.726 139.151 213.888 146.806 207.524L141.692 201.372C135.483 206.534 127.161 209.726 117.959 209.726V217.726ZM82.9985 201.234C90.8434 211.283 103.635 217.726 117.959 217.726V209.726C106.025 209.726 95.5887 204.361 89.3045 196.311L82.9985 201.234ZM60.2539 207.51C69.5986 207.51 78.4903 205.59 86.5161 202.131L83.3492 194.784C76.3111 197.818 68.496 199.51 60.2539 199.51V207.51ZM-4 145.731C-4 180.007 24.9272 207.51 60.2539 207.51V199.51C29.026 199.51 4 175.276 4 145.731H-4ZM14.3109 102.54C3.0053 113.656 -4 128.897 -4 145.731H4C4 131.177 10.0445 117.954 19.9197 108.244L14.3109 102.54ZM12.9941 98.6906C12.9941 100.858 13.1496 102.994 13.451 105.086L21.3693 103.945C21.1221 102.229 20.9941 100.475 20.9941 98.6906H12.9941ZM60.9751 52.5159C34.6356 52.5159 12.9941 73.0326 12.9941 98.6906H20.9941C20.9941 77.7637 38.7344 60.5159 60.9751 60.5159V52.5159ZM81.3224 56.8619C75.1367 54.071 68.2374 52.5159 60.9751 52.5159V60.5159C67.0881 60.5159 72.8671 61.8236 78.0323 64.1541L81.3224 56.8619ZM145.137 23.2202C114.423 23.2202 87.42 37.3809 77.4301 58.2852L84.6482 61.7346C92.8901 44.4882 116.396 31.2202 145.137 31.2202V23.2202ZM184.993 32.0218C173.561 26.4416 159.839 23.2202 145.137 23.2202V31.2202C158.692 31.2202 171.206 34.1941 181.484 39.2111L184.993 32.0218ZM336 -4C269.716 -4 211.445 10.4441 181.901 32.3099L186.66 38.7403C214.166 18.3829 270.367 4 336 4V-4ZM181.484 39.2111C183.132 40.0155 185.127 39.8752 186.66 38.7403L181.901 32.3099C182.826 31.6256 184.026 31.5497 184.993 32.0218L181.484 39.2111ZM89.3045 196.311C87.9102 194.525 85.4694 193.87 83.3492 194.784L86.5161 202.131C85.2556 202.674 83.8168 202.282 82.9985 201.234L89.3045 196.311ZM149.198 202.591C147.565 199.949 144.01 199.446 141.692 201.372L146.806 207.524C145.456 208.647 143.365 208.369 142.394 206.798L149.198 202.591ZM314.854 218.732C313.032 217.534 310.647 217.65 308.95 219.022L313.979 225.244C312.968 226.061 311.544 226.13 310.459 225.417L314.854 218.732ZM19.9197 108.244C21.0652 107.118 21.596 105.519 21.3693 103.945L13.451 105.086C13.3171 104.157 13.6299 103.209 14.3109 102.54L19.9197 108.244ZM504.882 213.506C503.107 212.715 501.049 213.023 499.585 214.268L504.764 220.364C503.901 221.098 502.682 221.284 501.627 220.813L504.882 213.506ZM596.235 176.816C595.249 177.493 594.541 178.497 594.23 179.644L601.952 181.735C601.768 182.414 601.348 183.01 600.762 183.412L596.235 176.816ZM557.369 67.2197C557.825 69.1048 559.35 70.6358 561.367 71.0004L562.79 63.128C563.998 63.3465 564.882 64.2537 565.145 65.3403L557.369 67.2197ZM448.831 218.55C447.195 217.569 445.116 217.586 443.485 218.661L447.89 225.339C446.914 225.983 445.678 225.988 444.715 225.41L448.831 218.55ZM78.0323 64.1541C80.5283 65.2802 83.468 64.2044 84.6482 61.7346L77.4301 58.2852C78.125 56.8312 79.8526 56.1987 81.3224 56.8619L78.0323 64.1541ZM499.954 54.5014C501.247 56.9255 504.204 57.8268 506.612 56.6455L503.087 49.4637C504.492 48.7742 506.244 49.2963 507.012 50.7355L499.954 54.5014Z" fill="#0F458A" mask="url(#path-1-inside-1_2_2)"/>
</svg>
