<svg width="31" height="33" viewBox="0 0 31 33" fill="none" xmlns="http://www.w3.org/2000/svg">
<path d="M17.7712 1.47342C17.0387 2.28142 16.4008 3.18449 16.3771 3.4459C16.2826 4.42026 5.81554 12.5241 3.26374 13.6173C-1.06014 15.4472 -1.08377 17.0394 3.16923 19.8912C7.68213 22.9331 9.07617 24.3114 11.0136 27.7336C13.9435 32.9381 14.2507 33.2233 15.881 32.3915C16.6607 31.9875 17.6294 30.9418 18.0784 29.9912C21.0554 23.9074 23.1819 21.3408 27.2459 18.8931C28.9471 17.8712 30.3648 16.7067 30.412 16.3027C30.4593 15.8987 28.9708 14.045 27.1278 12.2151C24.6705 9.76735 23.2292 7.67604 21.7407 4.44403C20.6301 2.02001 19.5905 0 19.4251 0C19.2597 0 18.5037 0.641648 17.7712 1.44965V1.47342ZM18.6454 7.4384C18.9289 8.55535 20.4175 11.0269 21.9769 12.9518L24.8123 16.4453L21.6225 19.0119C19.6614 20.6041 17.8657 22.6479 16.9678 24.3827L15.5029 27.187L14.227 24.9531C12.7857 22.4578 10.9191 20.4853 7.77664 18.1326L5.62652 16.5403L6.94967 15.8512C9.71412 14.4015 15.0067 9.71982 16.2354 7.60475C16.9442 6.41651 17.653 5.41838 17.8184 5.41838C17.9838 5.41838 18.3383 6.32145 18.6218 7.46216L18.6454 7.4384Z" fill="white"/>
</svg>
