<svg width="33" height="41" viewBox="0 0 33 41" fill="none" xmlns="http://www.w3.org/2000/svg">
<path d="M20.1313 0.25666C19.4461 0.446779 18.8554 1.0409 18.8081 1.53996C18.2174 7.36235 8.57728 17.3911 2.90661 18.0565C1.13453 18.2704 0.118536 18.8645 0.000396757 19.7914C-0.0468588 20.1003 4.13526 23.665 8.19924 26.7782C10.1131 28.2279 11.7434 31.5787 12.8303 36.1891C13.3265 38.328 14.0826 40.348 14.5079 40.7044C15.453 41.4649 17.6503 39.9915 17.7921 38.4705C18.1702 34.7632 27.4086 23.261 31.1182 21.8827C31.9688 21.5737 32.6776 21.0034 32.7249 20.5994C32.7721 20.1954 30.8346 17.6763 28.4719 15.0146C24.1952 10.2141 21.6671 5.4374 21.927 2.68068C21.9979 2.08655 21.8088 1.42114 21.5253 1.20725C21.2181 0.969606 21.1709 0.613133 21.3835 0.30419C21.6513 -0.0760475 21.2181 -0.0998124 20.084 0.232896L20.1313 0.25666ZM21.1945 14.2304C21.8325 15.4186 23.4628 17.2723 24.8332 18.3655C26.2036 19.4587 27.2905 20.5043 27.2905 20.7182C27.2905 20.9321 26.3926 21.55 25.2821 22.1441C23.321 23.2135 20.8165 26.0415 18.3119 30.0103L17.0124 32.0778L16.2563 29.9627C15.1458 26.8733 12.1214 22.9283 9.75867 21.4787C7.44315 20.0528 7.2305 19.5537 8.78993 19.221C10.4202 18.8645 16.2799 13.4462 17.6503 10.9984L18.8554 8.85954L19.4697 10.4518C19.8005 11.3073 20.6038 13.0422 21.2181 14.2066L21.1945 14.2304Z" fill="white"/>
</svg>
