<svg width="239" height="253" viewBox="0 0 239 253" fill="none" xmlns="http://www.w3.org/2000/svg">
<g clip-path="url(#clip0_2_50)">
<path d="M183.983 130.265C186.208 132.886 189.945 129.111 187.741 126.51C178.652 115.751 170.067 104.635 161.88 93.205C165.029 96.6236 168.093 100.126 171.074 103.692C173.992 107.488 176.972 111.242 180.058 114.912C181.989 117.219 186.124 114.094 184.277 111.661C184.13 111.473 184.004 111.305 183.857 111.116C183.794 111.053 183.731 110.969 183.689 110.906C181.737 108.369 179.743 105.873 177.728 103.398C179.596 103.545 181.611 101.217 180.457 99.2034C178.673 96.1203 176.826 93.0792 174.936 90.08C175.251 89.3879 175.272 88.5699 174.726 87.71C170.15 80.4533 165.029 73.8048 159.172 67.5338C157.115 65.3106 152.959 68.3517 154.869 70.8475C155.373 71.4977 155.835 72.1479 156.318 72.7981C156.129 72.6303 155.961 72.4625 155.793 72.2737C153.862 70.47 150.713 72.3157 151.175 74.6227C149.412 72.9239 147.606 71.246 145.801 69.6101C144.059 68.0162 141.288 69.3794 141.183 71.3509C139.084 68.8761 136.985 66.3803 134.886 63.9054C132.913 61.5774 129.261 64.5556 130.73 67.1143C132.073 69.4214 133.438 71.7075 134.802 74.0145C132.913 73.5321 130.604 75.9021 131.863 77.9155C140.491 91.674 149.118 105.411 157.745 119.17C143.01 101.343 128.925 83.012 115.491 64.1571C113.665 61.5774 109.508 63.8635 111.188 66.6739C120.214 81.9004 129.575 96.9382 139.231 111.745C126.91 95.8686 114.819 79.8031 103.001 63.5279C101.217 61.095 97.2498 63.2343 98.8661 65.9398C115.428 93.6874 132.976 120.806 151.511 147.274C130.478 123.365 110.39 98.6581 91.3094 73.1546C89.5882 70.8685 85.6629 73.0707 87.4052 75.4407C108.459 104.216 129.513 133.012 150.566 161.787C123.341 134.438 103.652 100.021 73.5933 75.2519C71.7881 73.7628 68.4926 75.7133 70.0879 77.9575C89.4203 105.349 110.348 131.523 132.745 156.418C112.447 135.11 95.5286 110.214 72.3129 91.7998C70.5497 90.3946 67.1911 92.2822 68.8284 94.4844C83.5219 114.178 98.2154 133.851 112.909 153.524C97.1868 136.2 81.4858 118.897 65.7638 101.573C64.1895 99.8326 60.9779 102.203 62.4472 104.132C76.1752 122.127 89.9241 140.122 103.673 158.117C87.3212 140.688 70.9695 123.239 54.6387 105.81C53.0644 104.111 50.4196 106.271 51.4901 108.243C57.2206 118.604 63.8116 128.314 70.9905 137.563C64.7772 130.789 58.6899 123.889 52.7495 116.842C51.3642 115.185 48.6564 117.324 49.7689 119.128C60.0333 135.886 72.04 151.301 84.8443 166.066C75.8393 157.656 66.8553 149.224 57.8503 140.814C56.255 139.325 53.967 141.611 55.4573 143.205C67.7579 156.565 80.0794 169.904 92.401 183.243C83.375 176.574 74.8527 169.317 66.7923 161.41C65.6378 160.277 64.0006 161.704 64.6513 163.067C70.8015 176.07 80.1424 186.095 92.6529 193.184C93.9753 193.939 95.1507 191.926 93.8283 191.15C84.3615 185.676 76.8888 178.461 71.2843 169.527C81.024 178.629 91.4354 186.85 102.623 194.233C104.177 195.261 105.73 193.017 104.555 191.737C99.2229 185.907 93.8703 180.076 88.5177 174.246C97.6067 182.803 106.717 191.339 115.806 199.896C117.464 201.469 119.878 199.057 118.324 197.379C101.721 179.72 85.2012 161.913 70.5497 142.66C86.9644 160.361 104.366 177.098 122.753 192.828C124.643 194.443 127.329 191.842 125.503 190.08C103.946 169.191 82.4094 148.008 65.4699 123.26C86.3766 145.575 107.283 167.912 128.169 190.248C129.722 191.905 132.787 189.64 131.381 187.773C119.521 172.211 107.682 156.649 95.8224 141.087C110.6 157.425 125.398 173.763 140.197 190.101C141.834 191.905 145.13 189.472 143.618 187.459C124.517 161.829 105.415 136.221 86.3137 110.592C110.957 135.823 130.247 166.423 160.432 185.718C162.594 187.102 164.882 183.998 163.119 182.215C136.125 154.908 111.104 125.839 88.0979 95.1345C113.958 122.588 133.522 155.873 163.475 179.447C165.281 180.873 168.66 178.986 167.002 176.72C159.865 166.947 152.707 157.173 145.57 147.4C155.415 158.704 165.449 169.841 175.713 180.768C177.455 182.635 180.94 180.118 179.344 177.979C163.182 156.23 147.69 134.019 132.871 111.347C147.544 130.391 162.531 149.183 177.875 167.681C179.638 169.799 183.354 166.968 181.716 164.724C168.849 147.106 156.465 129.153 144.542 110.885C154.785 123.7 165.344 136.263 176.238 148.553C178.148 150.714 181.737 147.903 180.226 145.47C173.131 134.124 166.036 122.777 158.941 111.41C161.838 114.996 164.735 118.562 167.611 122.148C172.208 128.104 176.951 133.977 181.842 139.745C184.046 142.345 187.657 138.633 185.558 136.032C181.339 130.831 177.119 125.609 172.921 120.407C166.813 112.563 160.978 104.531 155.373 96.33L183.962 130.181L183.983 130.265Z" fill="#FFD573"/>
<path d="M137.615 60.1932C136.23 60.2561 135.81 62.3744 137.279 62.689C175.314 71.0153 192.967 112.375 184.571 148.448C175.986 185.445 139.252 206.565 102.707 196.184C66.3726 185.865 48.1737 144.904 60.2013 109.984C72.6068 73.9306 113.896 58.6831 148.824 68.3098C149.874 68.6034 150.23 67.0933 149.265 66.7158C120.948 55.6629 86.6496 65.7301 67.737 89.304C49.1812 112.437 48.4256 147.043 64.2106 171.834C80.4154 197.295 112.804 207.761 141.477 199.749C170.927 191.506 188.664 164.409 190.176 134.69C191.666 105.621 173.152 58.5782 137.594 60.1722L137.615 60.1932Z" fill="white"/>
<path d="M136.586 0.503359C136.146 -0.440436 134.571 0.0209748 134.634 1.02769C134.907 6.1871 136.397 11.1787 136.712 16.3591C137.048 21.5395 136.838 26.6989 136.356 31.8583C136.251 33.0119 138.182 33.2845 138.392 32.131C140.092 22.2316 140.931 9.83644 136.586 0.482386V0.503359Z" fill="white"/>
<path d="M80.1844 53.9012C75.9233 42.6386 72.145 30.7048 66.6664 19.9455C66.0577 18.7501 64.1266 19.589 64.5044 20.8474C67.9049 32.3197 73.3625 43.4775 78.0014 54.4884C78.5472 55.7888 80.7092 55.2644 80.1844 53.8802V53.9012Z" fill="white"/>
<path d="M40.4281 86.2209C29.3451 82.3828 18.262 78.1043 6.96897 75.0002C5.26873 74.5388 4.68099 76.9717 6.25529 77.58C17.1705 81.8585 28.6104 85.0255 39.7774 88.5699C41.2888 89.0523 41.8975 86.7243 40.4281 86.2V86.2209Z" fill="white"/>
<path d="M28.4634 141.8C18.8497 143.31 7.34679 146.855 0.314913 153.964C-0.545706 154.824 0.54581 156.167 1.59534 155.621C6.06636 153.314 10.0546 150.357 14.7145 148.323C19.3325 146.309 24.1393 144.946 29.0931 144.002C30.5625 143.73 29.9118 141.569 28.4844 141.8H28.4634Z" fill="white"/>
<path d="M60.3693 191.905C52.6237 199.875 46.3895 209.711 39.6725 218.562C39.1057 219.296 40.3861 220.282 40.9739 219.569C47.9638 210.928 56.0032 202.517 61.8806 193.08C62.4683 192.157 61.1249 191.129 60.3693 191.905Z" fill="white"/>
<path d="M144.521 251.742C141.666 240.29 135.075 228.881 130.394 218.08C129.89 216.926 127.833 217.765 128.337 218.939C132.85 229.846 136.461 242.492 142.695 252.518C143.303 253.482 144.815 252.853 144.521 251.742Z" fill="white"/>
<path d="M206.842 210.991C203.988 207.425 200.188 204.489 196.809 201.427C193.387 198.323 189.924 195.24 186.481 192.157C185.495 191.276 184.067 192.681 185.033 193.604C191.561 199.959 197.963 207.572 205.478 212.752C206.611 213.528 207.577 211.892 206.842 210.991Z" fill="white"/>
<path d="M238.244 133.054C228.505 130.726 217.422 131.313 207.451 130.726C206.066 130.642 206.108 132.719 207.451 132.844C217.317 133.746 228.085 135.969 237.972 135.13C239.105 135.026 239.504 133.348 238.244 133.054Z" fill="white"/>
<path d="M232.514 72.2737C221.368 72.1479 210.18 72.4415 199.034 72.6303C197.627 72.6512 197.627 74.7905 199.034 74.8115C210.18 75.0212 221.368 75.3148 232.514 75.168C234.382 75.1471 234.382 72.2947 232.514 72.2528V72.2737Z" fill="white"/>
</g>
<defs>
<clipPath id="clip0_2_50">
<rect width="239" height="253" fill="white"/>
</clipPath>
</defs>
</svg>
